<svg class="animated" id="freepik_stories-online-games-addiction" xmlns="http://www.w3.org/2000/svg" viewBox="0 0 500 500" version="1.1" xmlns:xlink="http://www.w3.org/1999/xlink" xmlns:svgjs="http://svgjs.com/svgjs"><style>svg#freepik_stories-online-games-addiction:not(.animated) .animable {opacity: 0;}svg#freepik_stories-online-games-addiction.animated #freepik--background-complete--inject-139 {animation: 6s Infinite  linear shake;animation-delay: 1s;}svg#freepik_stories-online-games-addiction.animated #freepik--Character--inject-139 {animation: 6s Infinite  linear shake;animation-delay: 0s;}svg#freepik_stories-online-games-addiction.animated #freepik--Device--inject-139 {animation: 6s Infinite  linear shake;animation-delay: 0s;}svg#freepik_stories-online-games-addiction.animated #freepik--Icons--inject-139 {animation: 6s Infinite  linear wind;animation-delay: 0s;}svg#freepik_stories-online-games-addiction.animated #freepik--Trash--inject-139 {animation: 3s Infinite  linear shake;animation-delay: 0s;}            @keyframes shake {                10%, 90% {                    transform: translate3d(-1px, 0, 0);                  }                  20%, 80% {                    transform: translate3d(2px, 0, 0);                  }                  30%, 50%, 70% {                    transform: translate3d(-4px, 0, 0);                  }                  40%, 60% {                    transform: translate3d(4px, 0, 0);                  }            }                    @keyframes wind {                0% {                    transform: rotate( 0deg );                }                25% {                    transform: rotate( 1deg );                }                75% {                    transform: rotate( -1deg );                }            }        </style><g id="freepik--background-complete--inject-139" class="animable" style="transform-origin: 250px 137.927px;"><polygon points="449.41 242.61 300.47 242.61 300.47 60.72 433.9 60.72 449.41 75.75 449.41 242.61" style="fill: rgb(235, 235, 235); transform-origin: 374.94px 151.665px;" id="eloqegmaztg8" class="animable"></polygon><rect x="308.05" y="68.24" width="133.79" height="166.75" style="fill: rgb(255, 255, 255); transform-origin: 374.945px 151.615px;" id="elx560jdkt4rs" class="animable"></rect><g id="el2ar816hbsvk"><g style="opacity: 0.2; transform-origin: 374.945px 151.615px;" class="animable"><polygon points="379.36 68.24 374.94 151.61 370.54 68.24 379.36 68.24" style="fill: rgb(235, 235, 235); transform-origin: 374.95px 109.925px;" id="elp6ypzqh0i1r" class="animable"></polygon><polygon points="374.94 151.61 347.81 68.24 357.28 68.24 374.94 151.61" style="fill: rgb(235, 235, 235); transform-origin: 361.375px 109.925px;" id="elalmiewf9w2" class="animable"></polygon><polygon points="374.94 151.61 320.75 68.24 332.53 68.24 374.94 151.61" style="fill: rgb(235, 235, 235); transform-origin: 347.845px 109.925px;" id="el0s6ilaboryhm" class="animable"></polygon><polygon points="374.94 151.61 308.05 91.45 308.05 77.23 374.94 151.61" style="fill: rgb(235, 235, 235); transform-origin: 341.495px 114.42px;" id="el2ofv1k9pwnk" class="animable"></polygon><polygon points="374.94 151.61 308.05 117.57 308.05 108.12 374.94 151.61" style="fill: rgb(235, 235, 235); transform-origin: 341.495px 129.865px;" id="el5japcv9w2y" class="animable"></polygon><polygon points="374.94 151.61 308.05 137.43 308.05 129.83 374.94 151.61" style="fill: rgb(235, 235, 235); transform-origin: 341.495px 140.72px;" id="elc7zw16yu3ew" class="animable"></polygon><polygon points="374.94 151.61 308.05 155.16 308.05 148.07 374.94 151.61" style="fill: rgb(235, 235, 235); transform-origin: 341.495px 151.615px;" id="ely1w3mg0pm3d" class="animable"></polygon><polygon points="374.94 151.61 308.05 173.38 308.05 165.79 374.94 151.61" style="fill: rgb(235, 235, 235); transform-origin: 341.495px 162.495px;" id="elpx5ffo8paym" class="animable"></polygon><polygon points="374.94 151.61 308.05 195.09 308.05 185.65 374.94 151.61" style="fill: rgb(235, 235, 235); transform-origin: 341.495px 173.35px;" id="elrfn7z52mmmc" class="animable"></polygon><polygon points="374.94 151.61 308.05 225.97 308.05 211.78 374.94 151.61" style="fill: rgb(235, 235, 235); transform-origin: 341.495px 188.79px;" id="elhdtldrrkbbw" class="animable"></polygon><polygon points="374.94 151.61 332.51 234.99 320.72 234.99 374.94 151.61" style="fill: rgb(235, 235, 235); transform-origin: 347.83px 193.3px;" id="eltfliiyfpv4" class="animable"></polygon><polygon points="374.94 151.61 357.27 234.99 347.79 234.99 374.94 151.61" style="fill: rgb(235, 235, 235); transform-origin: 361.365px 193.3px;" id="el1mn2ucygphp" class="animable"></polygon><polygon points="379.36 234.99 370.52 234.99 374.94 151.61 379.36 234.99" style="fill: rgb(235, 235, 235); transform-origin: 374.94px 193.3px;" id="elb73sqwtsdjq" class="animable"></polygon><polygon points="402.08 234.99 392.62 234.99 374.94 151.61 402.08 234.99" style="fill: rgb(235, 235, 235); transform-origin: 388.51px 193.3px;" id="elx6vpitau5ja" class="animable"></polygon><polygon points="429.15 234.99 417.37 234.99 374.94 151.61 429.15 234.99" style="fill: rgb(235, 235, 235); transform-origin: 402.045px 193.3px;" id="elkcvcaq3poka" class="animable"></polygon><polygon points="441.84 211.79 441.84 226 374.94 151.61 441.84 211.79" style="fill: rgb(235, 235, 235); transform-origin: 408.39px 188.805px;" id="el0b6og6ect78k" class="animable"></polygon><polygon points="441.84 185.66 441.84 195.11 374.94 151.61 441.84 185.66" style="fill: rgb(235, 235, 235); transform-origin: 408.39px 173.36px;" id="el9243gcs6lak" class="animable"></polygon><polygon points="441.84 165.8 441.84 173.39 374.94 151.61 441.84 165.8" style="fill: rgb(235, 235, 235); transform-origin: 408.39px 162.5px;" id="el99lemlf7q6u" class="animable"></polygon><polygon points="441.84 148.07 441.84 155.16 374.94 151.61 441.84 148.07" style="fill: rgb(235, 235, 235); transform-origin: 408.39px 151.615px;" id="ely8vlirswuu8" class="animable"></polygon><polygon points="441.84 129.84 441.84 137.44 374.94 151.61 441.84 129.84" style="fill: rgb(235, 235, 235); transform-origin: 408.39px 140.725px;" id="el0ne8c9c49ko" class="animable"></polygon><polygon points="441.84 108.12 441.84 117.57 374.94 151.61 441.84 108.12" style="fill: rgb(235, 235, 235); transform-origin: 408.39px 129.865px;" id="elt6jed5j8gh" class="animable"></polygon><polygon points="441.84 77.24 441.84 91.44 374.94 151.61 441.84 77.24" style="fill: rgb(235, 235, 235); transform-origin: 408.39px 114.425px;" id="elfauwt1sif6w" class="animable"></polygon><polygon points="429.16 68.24 374.94 151.61 417.37 68.24 429.16 68.24" style="fill: rgb(235, 235, 235); transform-origin: 402.05px 109.925px;" id="elojltlphf28" class="animable"></polygon><polygon points="402.08 68.24 374.94 151.61 392.62 68.24 402.08 68.24" style="fill: rgb(235, 235, 235); transform-origin: 388.51px 109.925px;" id="el5eufe08kg3m" class="animable"></polygon></g></g><g id="eljvnip0z9ups"><path d="M343,98.84h65.16a1.18,1.18,0,0,1,1.18,1.18V200.26a4.13,4.13,0,0,1-4.13,4.13H343a1.18,1.18,0,0,1-1.18-1.18V100A1.18,1.18,0,0,1,343,98.84Z" style="fill: rgb(219, 219, 219); transform-origin: 375.58px 151.615px; transform: rotate(-6deg);" class="animable"></path></g><g id="eldbyys2llpp5"><path d="M345.95,105.52h54a.86.86,0,0,1,.86.86v33.8a2.06,2.06,0,0,1-2.06,2.06H345.95a.86.86,0,0,1-.86-.86v-35a.86.86,0,0,1,.86-.86Z" style="fill: rgb(166, 166, 166); transform-origin: 372.95px 123.88px; transform: rotate(-6deg);" class="animable"></path></g><g id="el5odvr3unj3u"><rect x="357.11" y="108.36" width="31.13" height="31.13" style="fill: rgb(199, 199, 199); transform-origin: 372.675px 123.925px; transform: rotate(-6deg);" class="animable"></rect></g><path d="M372.32,161.72a11.64,11.64,0,1,1-12.79-10.36A11.66,11.66,0,0,1,372.32,161.72Z" style="fill: rgb(199, 199, 199); transform-origin: 360.744px 162.938px;" id="elmqcqs2422z" class="animable"></path><g id="elx92sojl7b1"><rect x="357.99" y="154.62" width="5.51" height="16.64" style="fill: rgb(166, 166, 166); transform-origin: 360.745px 162.94px; transform: rotate(-6deg);" class="animable"></rect></g><g id="elg41wq9c38hj"><rect x="357.99" y="154.62" width="5.51" height="16.64" style="fill: rgb(166, 166, 166); transform-origin: 360.745px 162.94px; transform: rotate(-96deg);" class="animable"></rect></g><g id="elji31vfkfmcm"><rect x="382.27" y="152.46" width="22.72" height="10.7" rx="1.99" style="fill: rgb(199, 199, 199); transform-origin: 393.63px 157.81px; transform: rotate(-35.47deg);" class="animable"></rect></g><path d="M392.06,158.79a3.5,3.5,0,1,1-4.89-.82A3.5,3.5,0,0,1,392.06,158.79Z" style="fill: rgb(255, 255, 255); transform-origin: 389.206px 160.817px;" id="eloa0s1qoja6m" class="animable"></path><path d="M400.8,152.56a3.5,3.5,0,1,1-4.88-.82A3.5,3.5,0,0,1,400.8,152.56Z" style="fill: rgb(255, 255, 255); transform-origin: 397.95px 154.591px;" id="eljmt5p6xluxh" class="animable"></path><g id="elufpittlyjle"><rect x="377.54" y="178.03" width="10.56" height="3.64" rx="0.68" style="fill: rgb(166, 166, 166); transform-origin: 382.82px 179.85px; transform: rotate(144.54deg);" class="animable"></rect></g><g id="el6k8rf6ddzkv"><rect x="396.21" y="194.76" width="6.1" height="1.35" rx="0.25" style="fill: rgb(166, 166, 166); transform-origin: 399.26px 195.435px; transform: rotate(-125.46deg);" class="animable"></rect></g><g id="el6yqy2y5999s"><rect x="398.03" y="193.47" width="6.1" height="1.35" rx="0.25" style="fill: rgb(166, 166, 166); transform-origin: 401.08px 194.145px; transform: rotate(-125.47deg);" class="animable"></rect></g><g id="elqca094c99jd"><rect x="399.84" y="192.18" width="6.1" height="1.35" rx="0.25" style="fill: rgb(166, 166, 166); transform-origin: 402.89px 192.855px; transform: rotate(-125.47deg);" class="animable"></rect></g><g id="elud1fstbwuh"><rect x="401.66" y="190.88" width="6.1" height="1.35" rx="0.25" style="fill: rgb(166, 166, 166); transform-origin: 404.71px 191.555px; transform: rotate(-125.47deg);" class="animable"></rect></g><g id="el9no4mphc8x5"><rect x="403.47" y="189.59" width="6.1" height="1.35" rx="0.25" style="fill: rgb(166, 166, 166); transform-origin: 406.52px 190.265px; transform: rotate(-125.47deg);" class="animable"></rect></g><g id="el68imbyy47y2"><rect x="405.29" y="188.3" width="6.1" height="1.35" rx="0.25" style="fill: rgb(166, 166, 166); transform-origin: 408.34px 188.975px; transform: rotate(-125.46deg);" class="animable"></rect></g><g id="el4fr5es3446q"><rect x="366.85" y="179.15" width="10.56" height="3.64" rx="0.68" style="fill: rgb(166, 166, 166); transform-origin: 372.13px 180.97px; transform: rotate(144.53deg);" class="animable"></rect></g><g id="elqvq4280nfbc"><rect x="347.35" y="145.8" width="15.68" height="1.34" style="fill: rgb(166, 166, 166); transform-origin: 355.19px 146.47px; transform: rotate(-6deg);" class="animable"></rect></g><g id="elyxsxmxd735"><rect x="380.27" y="142" width="22.2" height="1.34" style="fill: rgb(166, 166, 166); transform-origin: 391.37px 142.67px; transform: rotate(-6deg);" class="animable"></rect></g><g id="elfpjxx20bejm"><rect x="365.26" y="144.67" width="1.34" height="1.34" style="fill: rgb(166, 166, 166); transform-origin: 365.93px 145.34px; transform: rotate(-6deg);" class="animable"></rect></g><g id="elwpd6w0o6lt"><rect x="367.66" y="144.42" width="1.34" height="1.34" style="fill: rgb(166, 166, 166); transform-origin: 368.33px 145.09px; transform: rotate(-6deg);" class="animable"></rect></g><g id="el4vp6r5vcvhu"><rect x="370.05" y="144.17" width="1.34" height="1.34" style="fill: rgb(166, 166, 166); transform-origin: 370.72px 144.84px; transform: rotate(-6deg);" class="animable"></rect></g><g id="elm4oee7qtapf"><rect x="372.44" y="143.92" width="1.34" height="1.34" style="fill: rgb(166, 166, 166); transform-origin: 373.11px 144.59px; transform: rotate(-6deg);" class="animable"></rect></g><g id="elbwbfgu8pezr"><rect x="374.84" y="143.67" width="1.34" height="1.34" style="fill: rgb(166, 166, 166); transform-origin: 375.51px 144.34px; transform: rotate(-5.99deg);" class="animable"></rect></g><g id="elubdab494a8f"><rect x="377.23" y="143.41" width="1.34" height="1.34" style="fill: rgb(166, 166, 166); transform-origin: 377.9px 144.08px; transform: rotate(-6deg);" class="animable"></rect></g><g id="elejtbupw51ar"><rect x="373.07" y="198.46" width="12.04" height="3.71" rx="0.69" style="fill: rgb(199, 199, 199); transform-origin: 379.09px 200.315px; transform: rotate(-6deg);" class="animable"></rect></g><g id="ela0996wawf4"><rect x="344.98" y="183.25" width="2.56" height="16.62" style="fill: rgb(255, 255, 255); transform-origin: 346.26px 191.56px; transform: rotate(90deg);" class="animable"></rect></g><g id="el0gyhm5kruxfc"><rect x="409.92" y="115.61" width="2.56" height="16.62" style="fill: rgb(255, 255, 255); transform-origin: 411.2px 123.92px; transform: rotate(90deg);" class="animable"></rect></g><g id="el88nk4l15ga8"><rect x="408.11" y="161.11" width="2.56" height="16.62" style="fill: rgb(255, 255, 255); transform-origin: 409.39px 169.42px; transform: rotate(90deg);" class="animable"></rect></g><g id="el4j1n5cqke1q"><rect x="414.35" y="152.21" width="2.56" height="16.62" style="fill: rgb(219, 219, 219); transform-origin: 415.63px 160.52px; transform: rotate(90deg);" class="animable"></rect></g><g id="elb8xcyjgmf3n"><rect x="414.35" y="189.84" width="2.56" height="16.62" style="fill: rgb(219, 219, 219); transform-origin: 415.63px 198.15px; transform: rotate(90deg);" class="animable"></rect></g><g id="el0fg9gyqcs4rt"><rect x="337.67" y="176.66" width="2.56" height="16.62" style="fill: rgb(219, 219, 219); transform-origin: 338.95px 184.97px; transform: rotate(90deg);" class="animable"></rect></g><g id="elo7lat0j4enb"><rect x="332.98" y="100.42" width="2.56" height="16.62" style="fill: rgb(219, 219, 219); transform-origin: 334.26px 108.73px; transform: rotate(90deg);" class="animable"></rect></g><polygon points="433.9 60.72 433.9 75.75 449.41 75.75 433.9 60.72" style="fill: rgb(235, 235, 235); transform-origin: 441.655px 68.235px;" id="el4xrrd1z586v" class="animable"></polygon><rect x="50.59" y="102.78" width="191.91" height="8.24" style="fill: rgb(235, 235, 235); transform-origin: 146.545px 106.9px;" id="elgq7990d19u" class="animable"></rect><polygon points="78.49 143.46 71.02 143.46 68.02 111.02 78.49 111.02 78.49 143.46" style="fill: rgb(235, 235, 235); transform-origin: 73.255px 127.24px;" id="elljr93ti8grf" class="animable"></polygon><polygon points="214.6 143.46 222.07 143.46 225.07 111.02 214.6 111.02 214.6 143.46" style="fill: rgb(235, 235, 235); transform-origin: 219.835px 127.24px;" id="elvdz7yjt8ahn" class="animable"></polygon><polygon points="68.02 111.02 78.49 111.02 78.49 122.19 69.05 122.19 68.02 111.02" style="fill: rgb(219, 219, 219); transform-origin: 73.255px 116.605px;" id="elbetnbwf3bi" class="animable"></polygon><polygon points="225.07 111.02 224.04 122.19 214.6 122.19 214.6 111.02 225.07 111.02" style="fill: rgb(219, 219, 219); transform-origin: 219.835px 116.605px;" id="el5khq74ixlp" class="animable"></polygon><path d="M120.08,53.35c-8.51,11.53-17.39,24.91-19.55,39.38a.19.19,0,0,0,.37.07,85.57,85.57,0,0,1,3.77-11.58c5.6-1.54,11.09-2.81,14-8.36,3-5.72,2.62-13.16,2-19.39C120.71,53.14,120.26,53.12,120.08,53.35Z" style="fill: rgb(235, 235, 235); transform-origin: 110.815px 73.0633px;" id="ely2voo3i5sve" class="animable"></path><path d="M104.75,81.11c3.83-8.58,8.74-17.2,15-24.26,0-.05.11,0,.07.07A101.85,101.85,0,0,0,109.58,73c2.82-2.86,5.9-5.43,8.58-8.46,0-.06.13,0,.08.08-2.65,3.19-5.55,6.65-9,9-.93,1.71-1.86,3.42-2.81,5.14.23-.13.47-.25.71-.36,0,0,.08,0,0,.06-.27.13-.53.27-.8.39-.45.81-.89,1.62-1.35,2.43C104.92,81.45,104.67,81.29,104.75,81.11Z" style="fill: rgb(166, 166, 166); transform-origin: 112.282px 69.091px;" id="ely84uh5ci9b" class="animable"></path><path d="M107.6,78.12a51,51,0,0,0,6.54-4.37s.13,0,.08.08a34.54,34.54,0,0,1-6.53,4.45C107.59,78.33,107.49,78.18,107.6,78.12Z" style="fill: rgb(166, 166, 166); transform-origin: 110.892px 76.02px;" id="elrd8chsjhydd" class="animable"></path><path d="M99.6,92.59a.16.16,0,0,0,.31,0c0-4.76,0-9.55.07-14.33,1.22-2.46,3.84-3.83,5.66-5.8a24.9,24.9,0,0,0,3.4-4.73A34,34,0,0,0,113,54.58c.5-5.09-1.43-21.91-3.58-21.32-1.11.3-4.72,8.63-5.67,11.38a78.73,78.73,0,0,0-3.39,14C98.6,69.81,98.74,81.31,99.6,92.59Z" style="fill: rgb(235, 235, 235); transform-origin: 106.032px 62.9776px;" id="elzmwft9de2g" class="animable"></path><path d="M99.56,72.05l0,0c.26-6,1.62-12.11,2.89-18,1.37-6.3,3-12.22,6.21-17.84a.09.09,0,0,1,.16.09,66.82,66.82,0,0,0-5,13.7c.22-.34.49-.66.71-1,.09-.13.3,0,.21.12a9,9,0,0,1-1,1.43l0,0c-1.12,4.5-1.92,9.1-2.61,13.69.06,0,.11-.12.16-.17s.09,0,.07.05l-.28.46c-.34,2.33-.66,4.65-1,7a32.81,32.81,0,0,0,9.69-12.88s0,0,0,0c-2,5.34-5,10.09-9.8,13.34-.09.62-.17,1.24-.26,1.86,0,.13-.22.09-.22,0,0-.55,0-1.1,0-1.65A.13.13,0,0,1,99.56,72.05Z" style="fill: rgb(166, 166, 166); transform-origin: 104.618px 55.0732px;" id="el3pjsucu61s" class="animable"></path><path d="M101.52,63.32A96.57,96.57,0,0,0,110,48.75c0-.06.13,0,.1,0a47.35,47.35,0,0,1-8.39,14.64C101.6,63.52,101.45,63.41,101.52,63.32Z" style="fill: rgb(166, 166, 166); transform-origin: 105.803px 56.0865px;" id="eltzuow1y5rj" class="animable"></path><path d="M105.73,47.58c1.32-2.32,2.7-4.58,3.94-6.95,0-.07.12,0,.1,0a35.67,35.67,0,0,1-3.84,7A.12.12,0,0,1,105.73,47.58Z" style="fill: rgb(166, 166, 166); transform-origin: 107.751px 44.1321px;" id="elb1qfoigf7kl" class="animable"></path><path d="M105.22,48.59s0,0,0,0A0,0,0,0,1,105.22,48.59Z" style="fill: rgb(166, 166, 166); transform-origin: 105.22px 48.59px;" id="elmt3920yhk3j" class="animable"></path><path d="M97.26,80.39a48.37,48.37,0,0,1-1.11,9.38l.15,1A45.3,45.3,0,0,0,98,80.34.33.33,0,0,0,98,80h0a69.43,69.43,0,0,0-1-14.17c-1.47-8.76-4.7-17.16-10.8-23.72a.44.44,0,0,0-.68.14c-2.46,6.26-1.6,13.74.5,20a36.66,36.66,0,0,0,4.84,9.49C92.89,74.68,95.56,77.17,97.26,80.39Z" style="fill: rgb(235, 235, 235); transform-origin: 91.035px 66.3874px;" id="elcnnyegpp35g" class="animable"></path><path d="M86.86,45.05c5.79,9.39,9.81,20.52,10.3,31.62,0,.19-.32.24-.35,0-.13-1-.29-2-.44-3h0a37.6,37.6,0,0,1-6.57-7.57s0-.11.08-.07A80.7,80.7,0,0,0,96.25,73q-.61-3.67-1.49-7.24l-.45-.54c-.1-.12.06-.29.17-.17l.14.15a82.86,82.86,0,0,0-3-9.6c-1.47-1.76-3.12-3.28-4.19-5.39,0,0,0-.09.08,0a43.88,43.88,0,0,0,2.67,3.55c.39.45.82.87,1.22,1.31a73.73,73.73,0,0,0-4.73-9.88C86.55,45,86.77,44.91,86.86,45.05Z" style="fill: rgb(166, 166, 166); transform-origin: 91.8975px 60.9068px;" id="elnw2vv8adlll" class="animable"></path><path d="M88,56.63c1.87,2.52,4,4.92,5.74,7.52,0,.08-.06.15-.12.1a38.37,38.37,0,0,1-5.75-7.54C87.85,56.63,88,56.56,88,56.63Z" style="fill: rgb(166, 166, 166); transform-origin: 90.8041px 60.434px;" id="elsnkx4vbf45j" class="animable"></path><path d="M94,64.74l.08.08c.06.05,0,.14-.08.08L94,64.82C93.89,64.77,94,64.68,94,64.74Z" style="fill: rgb(166, 166, 166); transform-origin: 94.0277px 64.82px;" id="el49gfepo37sq" class="animable"></path><path d="M76.9,60.73A28.84,28.84,0,0,0,83,75.05,15.18,15.18,0,0,0,88,78.92c2.14,1.06,4.39,2.28,6.61,3.15a44,44,0,0,1,2.34,8.31l.21-.74C95.7,77.41,87.78,67,77.66,60.25A.49.49,0,0,0,76.9,60.73Z" style="fill: rgb(235, 235, 235); transform-origin: 87.0271px 75.2725px;" id="elhui6i2858lo" class="animable"></path><path d="M80.4,64.34c-.07-.06,0-.19.1-.13a41.33,41.33,0,0,1,12.9,15.9.14.14,0,0,1-.25.14c-.47-.82-1-1.62-1.44-2.41h0c-2.31-.43-4.5-2.06-6.22-3.6a0,0,0,0,1,.07-.07,14.36,14.36,0,0,0,2.92,2c1,.48,2,.78,2.94,1.16-.86-1.36-1.75-2.66-2.68-3.92a27,27,0,0,1-6.94-3.91c-.07,0,0-.15.06-.11a69.13,69.13,0,0,0,6.46,3.45,60,60,0,0,0-4.56-5.31c-.79-.42-1.58-.83-2.34-1.28a.06.06,0,1,1,0-.11,8,8,0,0,1,1.79.88C82.35,66.14,81.41,65.23,80.4,64.34Z" style="fill: rgb(166, 166, 166); transform-origin: 86.8949px 72.2588px;" id="elw3i2xmjtot" class="animable"></path><path d="M80.62,68.57a3.39,3.39,0,0,1,.39.27,0,0,0,0,1-.05.07c-.15-.07-.27-.15-.41-.23S80.55,68.52,80.62,68.57Z" style="fill: rgb(166, 166, 166); transform-origin: 80.75px 68.7322px;" id="elcvj2peqxabr" class="animable"></path><polygon points="109.56 102.78 88.72 102.78 89.74 89.12 90.14 84.66 107.96 84.66 108.35 89.12 109.56 102.78" style="fill: rgb(219, 219, 219); transform-origin: 99.14px 93.72px;" id="el6ssvjogcjb5" class="animable"></polygon><polygon points="108.35 89.12 89.74 89.12 90.14 84.66 107.96 84.66 108.35 89.12" style="fill: rgb(199, 199, 199); transform-origin: 99.045px 86.89px;" id="elsdluu72cf2" class="animable"></polygon><rect x="88.72" y="81" width="20.66" height="4.57" style="fill: rgb(219, 219, 219); transform-origin: 99.05px 83.285px;" id="elmo60omgs0og" class="animable"></rect><g id="elgfzwrev0me"><rect x="129.17" y="71.69" width="49.61" height="12.49" style="fill: rgb(199, 199, 199); transform-origin: 153.975px 77.935px; transform: rotate(90deg);" class="animable"></rect></g><g id="elzwjldqzy6rr"><rect x="151.25" y="46.96" width="5.45" height="12.49" style="fill: rgb(219, 219, 219); transform-origin: 153.975px 53.205px; transform: rotate(90deg);" class="animable"></rect></g><g id="elv9h6lxnfdw"><rect x="152.96" y="57.68" width="2.02" height="12.49" style="fill: rgb(219, 219, 219); transform-origin: 153.97px 63.925px; transform: rotate(90deg);" class="animable"></rect></g><g id="elkmb7lpr30kn"><rect x="151.25" y="87.27" width="5.45" height="12.49" style="fill: rgb(219, 219, 219); transform-origin: 153.975px 93.515px; transform: rotate(90deg);" class="animable"></rect></g><g id="elh5k89talj7"><rect x="135.65" y="69.44" width="57.88" height="8.73" style="fill: rgb(219, 219, 219); transform-origin: 164.59px 73.805px; transform: rotate(90deg);" class="animable"></rect></g><g id="elys7vfbgybx"><rect x="153.42" y="58.82" width="22.26" height="5.24" style="fill: rgb(235, 235, 235); transform-origin: 164.55px 61.44px; transform: rotate(90deg);" class="animable"></rect></g><g id="elo8hkd8j2oqi"><rect x="178.57" y="74.87" width="57.88" height="8.73" style="fill: rgb(199, 199, 199); transform-origin: 207.51px 79.235px; transform: rotate(44.67deg);" class="animable"></rect></g><g id="eldswd6c94ix5"><rect x="199.4" y="79.57" width="22.26" height="5.24" style="fill: rgb(219, 219, 219); transform-origin: 210.53px 82.19px; transform: rotate(44.67deg);" class="animable"></rect></g><g id="ele94e6fq0db4"><rect x="154.38" y="73.36" width="43.96" height="14.83" style="fill: rgb(166, 166, 166); transform-origin: 176.36px 80.775px; transform: rotate(90deg);" class="animable"></rect></g><g id="elrenns1xtug"><rect x="174.31" y="88.64" width="4.1" height="14.83" style="fill: rgb(199, 199, 199); transform-origin: 176.36px 96.055px; transform: rotate(90deg);" class="animable"></rect></g><g id="el7o3wwqlbrnm"><rect x="175.57" y="83.1" width="1.59" height="14.83" style="fill: rgb(199, 199, 199); transform-origin: 176.365px 90.515px; transform: rotate(90deg);" class="animable"></rect></g><g id="eljf57232dw4"><rect x="114.29" y="76.66" width="41.31" height="10.24" style="fill: rgb(166, 166, 166); transform-origin: 134.945px 81.78px; transform: rotate(113.23deg);" class="animable"></rect></g><g id="elycuslq52gen"><rect x="127.36" y="89.84" width="3.85" height="10.24" style="fill: rgb(199, 199, 199); transform-origin: 129.285px 94.96px; transform: rotate(113.23deg);" class="animable"></rect></g><g id="el71k7ap8aha2"><rect x="137.05" y="67.27" width="3.85" height="10.24" style="fill: rgb(199, 199, 199); transform-origin: 138.975px 72.39px; transform: rotate(113.23deg);" class="animable"></rect></g><g id="el3thh50ms4ow"><rect x="136.14" y="72.15" width="1.49" height="10.24" style="fill: rgb(199, 199, 199); transform-origin: 136.885px 77.27px; transform: rotate(113.23deg);" class="animable"></rect></g></g><g id="freepik--Shadow--inject-139" class="animable" style="transform-origin: 250px 414.97px;"><ellipse cx="250" cy="414.97" rx="208.19" ry="25.7" style="fill: rgb(235, 235, 235); transform-origin: 250px 414.97px;" id="elneh8dxk2lle" class="animable"></ellipse></g><g id="freepik--Desk--inject-139" class="animable" style="transform-origin: 250px 372.76px;"><polygon points="47.44 372.76 98.08 372.51 148.72 372.43 250 372.26 351.28 372.42 401.92 372.51 452.56 372.76 401.92 373 351.28 373.09 250 373.26 148.72 373.09 98.08 373 47.44 372.76" style="fill: rgb(38, 50, 56); transform-origin: 250px 372.76px;" id="el8ot4jitnsfn" class="animable"></polygon></g><g id="freepik--Chair--inject-139" class="animable" style="transform-origin: 108.759px 266.264px;"><path d="M47.73,372.74a469.1,469.1,0,0,0-.57-50.69c-2.47-40.33-7.73-93.6-2.85-104.79,3.38-7.78,16.49-18.43,17.62-20.42,2.23-3.9,9.78-26.37,13.43-31,6.16-7.79,34-7.62,38.47-2,8.25,10.59,9.92,29.14,13.23,32.73s28.11,13.29,31.46,22.47S147.86,249,147.68,254.66s26.58,69.22,27.49,83.32-13.12,34.4-13.12,34.4Z" style="fill: rgb(166, 166, 166); transform-origin: 108.759px 266.264px;" id="el7jxff6jhn0t" class="animable"></path><path d="M162.05,372.39l-6.61,0h-.07S164,351.32,164,341s-24.77-75.47-24.64-86.19S155,230.27,153.8,221.23s-24.64-17.33-29.36-22-8.12-31.61-12.32-34.9-27.87-3.12-32,4-7.6,26.21-11,33.52S50.53,214,50,226.07s28,90.48,24.1,109.88S62.67,367.2,58.73,372.71h-2.4s11.23-27.43,11.49-39.2c.22-9.39-17.75-59-25-78.7h0c-.82-18-.75-32.33,1.53-37.55,3.38-7.77,16.48-18.41,17.63-20.4,2.22-3.91,9.77-26.39,13.43-31,6.16-7.8,34-7.63,38.46-2,8.25,10.59,9.92,29.14,13.24,32.73s28.1,13.29,31.45,22.47S147.85,249,147.69,254.66s26.57,69.22,27.48,83.32S162.05,372.39,162.05,372.39Z" style="fill: rgb(235, 235, 235); transform-origin: 108.777px 266.255px;" id="elkuq3oex35t" class="animable"></path><path d="M89.06,172.81c-3.89,2.09-8.75,22.49-6,23.62s9,.29,10.42-2.27S93.09,170.63,89.06,172.81Z" style="fill: rgb(235, 235, 235); transform-origin: 88.1069px 184.787px;" id="elig8x6dhud4q" class="animable"></path><path d="M106.67,171c3.89,2.1,8.75,22.49,6,23.63s-9,.28-10.42-2.27S102.64,168.84,106.67,171Z" style="fill: rgb(235, 235, 235); transform-origin: 107.623px 182.984px;" id="el0beuhxzzkjlp" class="animable"></path></g><g id="freepik--Character--inject-139" class="animable" style="transform-origin: 202.289px 274.882px;"><path d="M228.24,393.39H148c-6.85,0,3.06-19.49,28-27S236.12,386.08,228.24,393.39Z" style="fill: rgb(55, 71, 79); transform-origin: 187.626px 379.241px;" id="elyb7lmry7zp" class="animable"></path><path d="M196.77,393.39a25.1,25.1,0,0,1,1.16-6.52,27.55,27.55,0,0,1,2.71-6.08,21.92,21.92,0,0,1,4.23-5.17,19.46,19.46,0,0,1,5.59-3.56c-.45.33-.9.64-1.36.95l-.67.46-.63.53-1.25,1-1.15,1.15a28.21,28.21,0,0,0-3.91,5.12,38.67,38.67,0,0,0-2.84,5.82q-.59,1.53-1.05,3.09C197.26,391.25,197,392.32,196.77,393.39Z" style="fill: rgb(38, 50, 56); transform-origin: 203.615px 382.725px;" id="elkj1fy8lzk3o" class="animable"></path><path d="M206.27,374.85a52.55,52.55,0,0,1,13.32,6.72,29.39,29.39,0,0,1,5.59,5,17.43,17.43,0,0,1,2.08,3.16,9.62,9.62,0,0,1,1,3.62,10.31,10.31,0,0,0-1.41-3.38,16.87,16.87,0,0,0-2.23-2.89,37.3,37.3,0,0,0-5.59-4.73c-2-1.44-4.1-2.72-6.22-4-1.06-.63-2.14-1.23-3.23-1.82S207.37,375.42,206.27,374.85Z" style="fill: rgb(38, 50, 56); transform-origin: 217.265px 384.1px;" id="eln8pwt99psgb" class="animable"></path><path d="M150.15,160c-15.6,9.47-24.18,29.17-24.18,29.17S108.89,207,109.55,219.06a21.1,21.1,0,0,0,9.69,17l.31-6.52s2.11,9,14.83,15.48,31.58,6.64,42,4.19a36.64,36.64,0,0,0,16.55-8.71l-5.67,8.21s13.22,2.71,24.37-9.35-6.35-37.5-7.21-42.27,4.35-36.81-30.05-39.39C174.38,157.73,160.88,153.5,150.15,160Z" style="fill: rgb(38, 50, 56); transform-origin: 162.432px 203.522px;" id="el4zx20cko9yv" class="animable"></path><path d="M114.65,234.12c-3.31-2.67-5.49-7.22-6.52-11.28A19.68,19.68,0,0,1,109,210c2.15-4.88,5.92-8.71,9.59-12.46s7.87-7.48,11.59-11.42c.21-.22-.12-.52-.35-.36A120.66,120.66,0,0,0,119,194.55a56.38,56.38,0,0,0-9.18,9.54,21.42,21.42,0,0,0-4.33,11.21,20.83,20.83,0,0,0,2,9.7c1.7,3.62,4.33,6.32,6.85,9.35C114.57,234.54,114.84,234.27,114.65,234.12Z" style="fill: rgb(38, 50, 56); transform-origin: 117.861px 210.065px;" id="ellg81lrkj2a" class="animable"></path><path d="M217.9,225.72c-1.16-12.54-9.8-22.4-13.69-34-2.11-6.3-3.3-13-6.62-18.82-.09-.15-.36,0-.27.16,2.63,5.16,3.5,10.81,5,16.35a86.77,86.77,0,0,0,6.54,16c4.65,9.46,10.26,20.65,6.09,31.3-1.92,4.91-6.28,9.81-11.88,10.14-.21,0-.17.37.05.33a16.76,16.76,0,0,0,11.29-6.93A21.28,21.28,0,0,0,217.9,225.72Z" style="fill: rgb(38, 50, 56); transform-origin: 207.681px 210.011px;" id="elpqrhhhsc1kr" class="animable"></path><path d="M217.63,229a21.94,21.94,0,0,0,.14-13.27c-1.38-4.28-4.32-7.84-7.33-11.1-3.47-3.76-7.2-7.43-8.77-12.42-.07-.21-.38-.08-.32.12,2.43,8.21,9.55,13.48,13.45,20.83,4.46,8.41,2,18.5-4.1,25.39a36.17,36.17,0,0,1-14,9.35.07.07,0,1,0,0,.14C205.85,244.75,214.65,238.54,217.63,229Z" style="fill: rgb(38, 50, 56); transform-origin: 207.679px 220.071px;" id="el2oxqccj83z7" class="animable"></path><path d="M149.06,256c7.71,33.58,23.32,76.09,35.38,84.66,9.72,6.92,71.31,26.25,74.15,26.56,7.05.71,22.55-54.4,15.25-56.42-9.2-2.55-65.08-5.7-67.57-8.26s-18.49-24.22-36.51-49.18C157.33,236.06,144.28,235.12,149.06,256Z" style="fill: rgb(247, 169, 160); transform-origin: 211.899px 303.791px;" id="el3r1cqjf6zsd" class="animable"></path><path d="M242.8,362.49c.93.48,14.18,7.14,22.37,9.51,6.11,1.77,23.83,6.4,26.45-.13,1.79-4.46-8.31-8.41-15.39-11.36-3.73-1.55-8.33-5.46-7.23-7.86,1.92-4.19,11.53,0,17.84,3.69,12.22,7.1,28.49,19.87,36,13.68,2.81-2.35-.46-6.61-5.25-10.79,7.77,4.87,16.07,8.87,19.3,6.39,1.85-1.41,1.94-3.35.91-5.56,2.4.78,4.52.63,6-.93,2.52-2.65,1.29-6.55-1.47-10.55a3,3,0,0,0,2.29-1.51c5.35-8.16-21.43-31.58-30.69-33.78-27.25-6.47-56.24-4.11-56.24-4.11C246.94,317.73,242.78,362.47,242.8,362.49Z" style="fill: rgb(247, 169, 160); transform-origin: 294.06px 342.005px;" id="elesd2n8zreow" class="animable"></path><path d="M282.87,337.41a46.19,46.19,0,0,1,18.18,7c6.91,4.56,11.49,9.9,17.29,15.27.15.15-.07.39-.22.25-2.76-2.56-14.2-12.16-17.16-14.35a44,44,0,0,0-18.11-8.05A.06.06,0,0,1,282.87,337.41Z" style="fill: rgb(38, 50, 56); transform-origin: 300.595px 348.691px;" id="el0pfeglnn8xw" class="animable"></path><path d="M288,325.84c7.16,2,14.5,3.94,21.15,7.33,7.27,3.71,13,9.75,18.56,15.57q5.05,5.24,9.85,10.7c.14.15-.07.39-.21.24q-8.52-9-17.58-17.51A58.33,58.33,0,0,0,300.44,330c-4.1-1.56-8.31-2.81-12.52-4C287.84,326,287.87,325.82,288,325.84Z" style="fill: rgb(38, 50, 56); transform-origin: 312.741px 342.783px;" id="eli9t7q6z9jf" class="animable"></path><path d="M295.6,315.73c7,1.43,13,2.65,19.19,6.38,8.16,4.94,16,13.26,18.8,16.2,3.05,3.26,6,6.62,8.88,10,.12.14-.12.35-.24.21a231.41,231.41,0,0,0-21.23-21,45.73,45.73,0,0,0-11.87-7.72,82.61,82.61,0,0,0-13.54-4A0,0,0,0,1,295.6,315.73Z" style="fill: rgb(38, 50, 56); transform-origin: 319.046px 332.148px;" id="elcez3q8c0x5v" class="animable"></path><path d="M205.89,297.6l-47-2s-8.54-23.3-11.68-44,14.49-13.26,31.94,9S205.89,297.6,205.89,297.6Z" style="fill: rgb(55, 71, 79); transform-origin: 176.367px 268.506px;" id="elcunkdldszw9" class="animable"></path><path d="M176.43,373.1l-2.85-47.72s12.84-14.2,10-27c-1.44-6.5-23.59-55.87-25.76-57.9-8.73-8.13-23.45-4.89-29.5-.32-33.47,25.3-57.06,79.59-68.39,133Z" style="fill: rgb(0, 255, 136); transform-origin: 121.96px 304.328px;" id="elfbsxh2sddbq" class="animable"></path><path d="M176.43,373.1l-2.85-47.72s12.84-14.2,10-27c-1.44-6.5-23.59-55.87-25.76-57.9-8.73-8.13-23.45-4.89-29.5-.32-33.47,25.3-57.06,79.59-68.39,133Z" style="fill: rgb(0, 255, 136); transform-origin: 121.96px 304.328px;" id="el6yn7z9rqzv" class="animable"></path><path d="M173.58,325.38l2.85,47.72H59.93c11.32-53.37,34.91-107.66,68.39-133a19.57,19.57,0,0,1,4.24-2.37c7.14-3,18.18-3.91,25.26,2.69,2.17,2,24.32,51.4,25.75,57.9C186.42,311.18,173.58,325.38,173.58,325.38Z" style="fill: rgb(0, 255, 136); transform-origin: 121.956px 304.272px;" id="el6zhihmz7qr8" class="animable"></path><g id="elp2nokvnjijf"><g style="opacity: 0.1; transform-origin: 121.968px 304.795px;" class="animable"><path d="M155.53,238.67H130.66a20.93,20.93,0,0,1,1.9-.9,28.39,28.39,0,0,1,3.78-1.28h14.53A18.14,18.14,0,0,1,155.53,238.67Z" id="el8kr2gl3fhtq" class="animable" style="transform-origin: 143.095px 237.58px;"></path><path d="M159.71,243.71H123.89c.88-.75,1.76-1.49,2.66-2.19h32C158.85,242.07,159.25,242.81,159.71,243.71Z" id="el6orlv0tbllc" class="animable" style="transform-origin: 141.8px 242.615px;"></path><path d="M162.21,248.74h-43.8c.75-.75,1.52-1.48,2.29-2.19h40.45Z" id="eln0b2hyft17c" class="animable" style="transform-origin: 140.31px 247.645px;"></path><path d="M164.6,253.77h-51c.67-.74,1.34-1.47,2-2.18h48Z" id="elx04lllzgn7m" class="animable" style="transform-origin: 139.1px 252.68px;"></path><path d="M166.93,258.8H109.24c.6-.74,1.21-1.46,1.83-2.18h54.86C166.25,257.33,166.59,258.06,166.93,258.8Z" id="elvehwzxh3rcn" class="animable" style="transform-origin: 138.085px 257.71px;"></path><path d="M169.23,263.84H105.28l1.68-2.19h61.27Z" id="elpkrotblc63e" class="animable" style="transform-origin: 137.255px 262.745px;"></path><path d="M171.48,268.87H101.66c.51-.74,1-1.47,1.54-2.19h67.3C170.83,267.41,171.16,268.14,171.48,268.87Z" id="eluxgk44jmoo" class="animable" style="transform-origin: 136.57px 267.775px;"></path><path d="M173.7,273.9H98.29c.47-.73.95-1.46,1.43-2.18h73C173.06,272.45,173.39,273.18,173.7,273.9Z" id="el2xo6k4v8cpn" class="animable" style="transform-origin: 135.995px 272.81px;"></path><path d="M175.89,278.93H95.15c.44-.73.89-1.46,1.34-2.18h78.45C175.27,277.48,175.58,278.21,175.89,278.93Z" id="el53z1pbhhlqd" class="animable" style="transform-origin: 135.52px 277.84px;"></path><path d="M178,284H92.21c.42-.73.83-1.46,1.26-2.18h83.64C177.43,282.52,177.74,283.25,178,284Z" id="el0czc0iv2gfzg" class="animable" style="transform-origin: 135.105px 282.91px;"></path><path d="M180.14,289H89.44c.4-.74.79-1.47,1.19-2.19h88.6Z" id="el8fyebkfbs94" class="animable" style="transform-origin: 134.79px 287.905px;"></path><path d="M182.12,294H86.85c.36-.73.73-1.46,1.1-2.18h93.33C181.59,292.63,181.87,293.36,182.12,294Z" id="elgo2tt3e1hxm" class="animable" style="transform-origin: 134.485px 292.91px;"></path><path d="M183.7,299.06H84.39c.34-.73.69-1.46,1-2.18h97.7a14.86,14.86,0,0,1,.43,1.48C183.62,298.59,183.67,298.83,183.7,299.06Z" id="el903kcpha0k4" class="animable" style="transform-origin: 134.045px 297.97px;"></path><path d="M184,301.91a17.65,17.65,0,0,1-.08,2.18H82.06l1-2.18Z" id="elpn1fqfok6b" class="animable" style="transform-origin: 133.033px 303px;"></path><path d="M183.45,306.94a20.72,20.72,0,0,1-.57,2.19h-103l.94-2.19Z" id="el90qyu5fqljc" class="animable" style="transform-origin: 131.665px 308.035px;"></path><path d="M181.89,312c-.3.75-.62,1.47-1,2.18H77.76c.29-.73.59-1.46.89-2.18Z" id="el58k8lay9dxk" class="animable" style="transform-origin: 129.825px 313.09px;"></path><path d="M179.45,317c-.43.77-.86,1.5-1.3,2.18H75.77c.28-.73.56-1.45.85-2.18Z" id="eld8zn9y2pru" class="animable" style="transform-origin: 127.61px 318.09px;"></path><path d="M176.22,322c-.64.89-1.22,1.63-1.66,2.18H73.89c.26-.73.52-1.46.79-2.18Z" id="elxq7tde0rnts" class="animable" style="transform-origin: 125.055px 323.09px;"></path><path d="M173.81,329.26H72.08c.26-.74.51-1.47.78-2.19H173.68Z" id="els0lds75h1pf" class="animable" style="transform-origin: 122.945px 328.165px;"></path><path d="M174.11,334.29H70.38c.24-.73.48-1.46.73-2.18H174Z" id="elu7qusd06ys8" class="animable" style="transform-origin: 122.245px 333.2px;"></path><path d="M174.41,339.32H68.77c.22-.73.45-1.46.69-2.18H174.28Z" id="elzo59220lc2" class="animable" style="transform-origin: 121.59px 338.23px;"></path><path d="M174.71,344.35H67.23c.21-.73.43-1.45.66-2.18H174.58Z" id="el2ylno64nn2j" class="animable" style="transform-origin: 120.97px 343.26px;"></path><path d="M175,349.39H65.78c.2-.73.4-1.46.62-2.19H174.88Z" id="elcxuvp5hvjm4" class="animable" style="transform-origin: 120.39px 348.295px;"></path><path d="M175.31,354.42H64.4c.19-.73.38-1.45.59-2.18H175.18Z" id="elyl5q15bjj6" class="animable" style="transform-origin: 119.855px 353.33px;"></path><path d="M175.61,359.45H63.1c.17-.73.36-1.45.55-2.18H175.48Z" id="elhphe6y32ffg" class="animable" style="transform-origin: 119.355px 358.36px;"></path><path d="M175.92,364.48h-114c.17-.73.34-1.45.52-2.18H175.78Z" id="elkl1eth382f" class="animable" style="transform-origin: 118.92px 363.39px;"></path><path d="M176.22,369.52H60.71c.16-.73.32-1.46.49-2.19H176.09Z" id="el30iz8ebqdtb" class="animable" style="transform-origin: 118.465px 368.425px;"></path><path d="M176.43,373.1H59.93c0-.24.1-.49.16-.73h116.3Z" id="elqoo2oksdnz8" class="animable" style="transform-origin: 118.18px 372.735px;"></path></g></g><path d="M143.46,234.42c-7.49,1-7.22,5.35-2.71,13.23S152,258.8,155.57,258.8c2.55,0,7.53-5.83,6.29-12.25C160.21,238,151.8,233.36,143.46,234.42Z" style="fill: rgb(55, 71, 79); transform-origin: 149.807px 246.535px;" id="elmvy7768kjof" class="animable"></path><path d="M162.73,241.67s-2.91,14.19-7.45,14.19c-8.46,0-16-16-15.95-18.22,0-.56,4.78-13.27,8.5-23.14,2.39-6.35,4.36-11.52,4.36-11.52L171.81,224l-8.46,16.46Z" style="fill: rgb(247, 169, 160); transform-origin: 155.57px 229.42px;" id="el3y3cpxq8606" class="animable"></path><path d="M171.81,224l-8.46,16.46a37.1,37.1,0,0,1-15.52-26c2.39-6.35,4.36-11.52,4.36-11.52l2.52,2.52Z" style="fill: rgb(38, 50, 56); transform-origin: 159.82px 221.7px;" id="eltp1tghjh3q" class="animable"></path><g id="el58rvx4u9cmi"><ellipse cx="196.16" cy="207.44" rx="13.71" ry="12.03" style="fill: rgb(0, 255, 136); transform-origin: 196.16px 207.44px; transform: rotate(-79.04deg);" class="animable"></ellipse></g><path d="M180.43,204.88c-1.6,8.27,3,16.11,10.24,17.52s14.43-4.16,16-12.43-3-16.11-10.23-17.52S182,196.61,180.43,204.88Z" style="fill: rgb(199, 199, 199); transform-origin: 193.545px 207.425px;" id="elk816vqofrk" class="animable"></path><path d="M203.79,204.34c-5.43,32-25.23,32.39-32.13,31.22-6.27-1.08-27.48-5.52-25.39-37.94s18.71-40,33.17-38.32S209.22,172.31,203.79,204.34Z" style="fill: rgb(247, 169, 160); transform-origin: 175.518px 197.481px;" id="elxacsboqkmg" class="animable"></path><path d="M200.2,198.43a18.65,18.65,0,0,1-2.24.09,3.57,3.57,0,0,1-2.3-.34,1.16,1.16,0,0,1-.35-1.37,2.85,2.85,0,0,1,2.58-1.34,4.22,4.22,0,0,1,2.92.79A1.23,1.23,0,0,1,200.2,198.43Z" style="fill: rgb(38, 50, 56); transform-origin: 198.238px 197.014px;" id="ely4q46d46hc" class="animable"></path><path d="M176.92,193.31c.63.43,1.29.73,2,1.1a3.56,3.56,0,0,0,2.21.73,1.14,1.14,0,0,0,.92-1.06,2.84,2.84,0,0,0-1.68-2.36,4.22,4.22,0,0,0-3-.62A1.23,1.23,0,0,0,176.92,193.31Z" style="fill: rgb(38, 50, 56); transform-origin: 179.223px 193.091px;" id="el4x28v4qoehh" class="animable"></path><g id="el2mk5z1p2mi3"><path d="M178.21,200.55c-4.14-1.24-6.31,7.14-2.47,8.28S181.68,201.59,178.21,200.55Z" style="fill: rgb(224, 127, 105); opacity: 0.8; transform-origin: 176.856px 204.681px;" class="animable"></path></g><path d="M179.89,202.88c0-.08-.19.07-.2.16-.41,2.17-1.23,4.6-3.34,4.89-.07,0-.09.12,0,.12C178.8,208.24,179.86,205,179.89,202.88Z" style="fill: rgb(38, 50, 56); transform-origin: 178.09px 205.458px;" id="elvhlhsqmmc1" class="animable"></path><path d="M178.46,200.2c-3.42-1-5.21,5.89-2.05,6.84S181.32,201.06,178.46,200.2Z" style="fill: rgb(38, 50, 56); transform-origin: 177.336px 203.615px;" id="elwbste3xq3y9" class="animable"></path><path d="M177,200.22c-.71.23-1.48.77-2.23.65s-1.31-1-1.68-1.86c0-.09-.11,0-.14.05-.36,1.32-.2,2.81,1.16,3.37s2.49-.41,3.16-1.66C177.41,200.54,177.29,200.12,177,200.22Z" style="fill: rgb(38, 50, 56); transform-origin: 175.057px 200.782px;" id="elfxqoigbdo8f" class="animable"></path><g id="elp0r02x54cpc"><path d="M195.4,203.74c-3.62-.62-4.81,7.95-1.45,8.52S198.44,204.26,195.4,203.74Z" style="fill: rgb(224, 127, 105); opacity: 0.8; transform-origin: 194.568px 207.998px;" class="animable"></path></g><path d="M192.64,205.33c0-.08.14.14.11.23-.64,2.12-1,4.65.73,5.88.05,0,0,.14,0,.11C191.16,210.59,191.69,207.23,192.64,205.33Z" style="fill: rgb(38, 50, 56); transform-origin: 192.667px 208.434px;" id="eltrdd9of2ugl" class="animable"></path><path d="M195.14,203.6c3.51.66,1.94,7.63-1.31,7S192.2,203.05,195.14,203.6Z" style="fill: rgb(38, 50, 56); transform-origin: 194.585px 207.105px;" id="el6w2i9x3j0oi" class="animable"></path><path d="M196.49,204.39c.47.49.86,1.29,1.51,1.48s1.48-.4,2.13-1c.07-.06.11,0,.1.1-.27,1.34-1,2.63-2.36,2.6s-1.82-1.37-1.83-2.77C196,204.52,196.3,204.19,196.49,204.39Z" style="fill: rgb(38, 50, 56); transform-origin: 198.134px 205.95px;" id="elvis45619o" class="animable"></path><path d="M175.77,219.52c.35.65.65,1.49,1.39,1.79a5.73,5.73,0,0,0,2.44.17.08.08,0,0,1,.06.14,3,3,0,0,1-3,.32,2.38,2.38,0,0,1-1.09-2.38C175.54,219.42,175.72,219.43,175.77,219.52Z" style="fill: rgb(38, 50, 56); transform-origin: 177.615px 220.827px;" id="el74mkao6sueq" class="animable"></path><path d="M186.66,214s-.35,3.31-.72,4.83c0,.14-.42.11-.94,0,0,0,0,0-.06,0a7.39,7.39,0,0,1-6.32-4.4.16.16,0,0,1,.28-.16,11.09,11.09,0,0,0,6.1,3.5c.21-.39.41-5.7.65-5.66a13.67,13.67,0,0,1,3.24,1.63c.93-6.89.74-13.87,1.77-20.71a.21.21,0,0,1,.42,0c.71,7.3-.18,15.25-1,22.39C190,216.29,187.2,214.38,186.66,214Z" style="fill: rgb(38, 50, 56); transform-origin: 184.969px 205.872px;" id="el37j7tyshbca" class="animable"></path><path d="M184.2,217.77a8.14,8.14,0,0,1-3.68,1.89,3.74,3.74,0,0,1-2.22-.28c-1.51-.71-1.28-2.18-.75-3.37a8.28,8.28,0,0,1,1.07-1.77A10.6,10.6,0,0,0,184.2,217.77Z" style="fill: rgb(38, 50, 56); transform-origin: 180.674px 216.98px;" id="elu7yp3hte86" class="animable"></path><path d="M180.52,219.66a3.74,3.74,0,0,1-2.22-.28c-1.51-.71-1.28-2.18-.75-3.37C179.21,216.51,180.68,218,180.52,219.66Z" style="fill: rgb(221, 106, 87); transform-origin: 178.84px 217.865px;" id="elpa2fynmbn5s" class="animable"></path><path d="M147.44,194.92c3.44.83,15.07-5.78,20.31-22,0,0-5.72,14.25-7.47,16.06s6.51-3.73,10.92-16.76c0,0,5.68,7.48,11.36,11.12s9.5,4.74,10.08,4.42-7.68-6-9.28-9.58c0,0,14.18,12.72,21.62,15.62.86.34,2.24-13.85-7.19-25.13s-25.41-12.28-31.91-9c0,0-6.14-1-15.2,5.79S143.74,194,147.44,194.92Z" style="fill: rgb(38, 50, 56); transform-origin: 174.93px 176.511px;" id="elnws5lak1iih" class="animable"></path><path d="M151,201s-4.31-11.6-9.4-10.31-3.63,16.85,1.09,20.16a5.49,5.49,0,0,0,7.87-1Z" style="fill: rgb(247, 169, 160); transform-origin: 144.702px 201.332px;" id="elraq0n8jbms7" class="animable"></path><path d="M142.08,195.09a.07.07,0,0,0-.07.13c3.28,2.44,4.33,6.34,4.76,10.22-.74-1.64-2-2.77-4.18-1.95-.11,0-.06.22,0,.22a3.39,3.39,0,0,1,3.3,2.08,16.18,16.18,0,0,1,1,3.36c.08.37.72.35.69-.06a.28.28,0,0,0,0-.09C148.9,204.35,147,196.87,142.08,195.09Z" style="fill: rgb(38, 50, 56); transform-origin: 144.979px 202.247px;" id="elcq95a661h3" class="animable"></path><path d="M146,210.18a1.13,1.13,0,1,1-.78-1.41A1.14,1.14,0,0,1,146,210.18Z" style="fill: rgb(255, 255, 255); transform-origin: 144.915px 209.859px;" id="elfblmhbtjcll" class="animable"></path><path d="M143.43,207.4a.71.71,0,0,1-.88.5.72.72,0,1,1,.39-1.38A.71.71,0,0,1,143.43,207.4Z" style="fill: rgb(255, 255, 255); transform-origin: 142.71px 207.2px;" id="el7naneoi4cum" class="animable"></path><path d="M140.29,197l-2.27-.09a.46.46,0,0,1-.44-.47h0a.46.46,0,0,1,.47-.44l2.27.09a.47.47,0,0,1,.44.48h0A.45.45,0,0,1,140.29,197Z" style="fill: rgb(0, 255, 136); transform-origin: 139.17px 196.5px;" id="elmtokvdem4v" class="animable"></path><path d="M140.4,195.5l-2.24-.41a.45.45,0,0,1-.36-.53h0a.44.44,0,0,1,.53-.36l2.23.41a.47.47,0,0,1,.37.53h0A.45.45,0,0,1,140.4,195.5Z" style="fill: rgb(0, 255, 136); transform-origin: 139.363px 194.849px;" id="el1ze7ha6lfmej" class="animable"></path><path d="M146.32,191.76s1.32-16.52,7.43-24.83c6.81-9.26,29.16-12.81,42.68.21,0,0-22.81-10.78-36.32,1.46-5.69,5.15-8.39,24.4-8.39,24.4Z" style="fill: rgb(199, 199, 199); transform-origin: 171.375px 175.817px;" id="elzmvv3cl6xvg" class="animable"></path><path d="M160.42,202.27c-1.14,8.35-8,14.3-15.32,13.3s-12.33-8.58-11.19-16.92,8-14.3,15.33-13.3S161.57,193.93,160.42,202.27Z" style="fill: rgb(199, 199, 199); transform-origin: 147.166px 200.46px;" id="elau3nkkdzmu9" class="animable"></path><path d="M156.63,201.27c-1,7.5-7.2,12.85-13.78,11.95s-11.08-7.71-10-15.21,7.19-12.85,13.77-11.95S157.65,193.77,156.63,201.27Z" style="fill: rgb(0, 255, 136); transform-origin: 144.733px 199.64px;" id="eltfwuzauek4" class="animable"></path><polygon points="168.31 227 158.27 222.5 150.31 212.27 151.88 211.04 159.54 220.88 169.12 225.18 168.31 227" style="fill: rgb(199, 199, 199); transform-origin: 159.715px 219.02px;" id="el0ysx6z82aac" class="animable"></polygon><path d="M167.25,225.37c1-2.92,9.26-1.71,7.7,2.72S166.22,228.31,167.25,225.37Z" style="fill: rgb(55, 71, 79); transform-origin: 171.147px 226.897px;" id="el29p5dkqo3co" class="animable"></path><path d="M118.68,247.18c-19.38,20.76-72.36,96-56.5,109.34,26.07,22,54.92,25.87,72.56,28.23,7.61,1,23.51-48.6,18.51-55.11s-38.66-5.41-39.17-10.41c-.28-2.84,12-26.33,20.33-56.45C144,228,127.24,238,118.68,247.18Z" style="fill: rgb(247, 169, 160); transform-origin: 106.732px 311.596px;" id="elcfk22gmppyd" class="animable"></path><path d="M132.24,324.6s23.29-1.7,38.57-2.1c8.53-.22,23.18.7,29.52,3.41,9.48,4,46.56,27,41.18,36.11-4.86,8.25-34.21-15.53-34.21-15.53s31.74,21.37,24,30.22-37.26-22.41-37.26-22.41S226.2,377,216.83,384.86c-7.07,5.95-35.47-20.86-35.47-20.86s27.47,19.69,20.45,26.12c-7.75,7.11-35.51-16-35.51-16-20.58,13.35-35.85,11.29-46.53,8.53C117.19,382,132.24,324.6,132.24,324.6Z" style="fill: rgb(247, 169, 160); transform-origin: 180.757px 356.974px;" id="elz8d557suvqe" class="animable"></path><path d="M196.8,338.4c3.82,2.38,7.7,4.75,11.3,7.46s7.09,5.54,10.42,8.57c8.16,7.43,12.1,13.36,11.82,13-6.71-8-19.42-17.92-23-20.63s-7-5.58-10.62-8.29C196.6,338.46,196.71,338.34,196.8,338.4Z" style="fill: rgb(38, 50, 56); transform-origin: 213.511px 352.915px;" id="elfmx3zvknz4v" class="animable"></path><path d="M186.79,351.2c4.75,3.24,9.58,6.29,14.18,9.75s8.62,7.1,13,10.84c.33.29.07.37-.28.1-4.48-3.57-8.89-6.53-13.41-10s-8.91-7.21-13.53-10.54C186.64,351.26,186.72,351.15,186.79,351.2Z" style="fill: rgb(38, 50, 56); transform-origin: 200.409px 361.621px;" id="elk7929jclxl" class="animable"></path><path d="M176.23,360.64c7.5,4.59,14.15,10.55,20.54,16.56.31.3,0,.37-.38.08-6.73-5.63-12-10.1-20.32-16.38C175.94,360.8,176.07,360.55,176.23,360.64Z" style="fill: rgb(38, 50, 56); transform-origin: 186.457px 369.043px;" id="elz9ogchii5jl" class="animable"></path><path d="M211.12,330.18c-4.92-3-10.16-5.63-15.9-6.63a80.66,80.66,0,0,0-10.3-.84c-3.61-.15-7.23-.19-10.84-.33-.1,0-.09.15,0,.16,3,.25,6.08.61,9.13.84s5.87.4,8.78.78a37.79,37.79,0,0,1,8.32,2,47.41,47.41,0,0,1,7.35,3.56c4.92,2.85,28.22,19,33.14,27a5.8,5.8,0,0,1,.85,4.21,3.42,3.42,0,0,1-2.54,2.7c-.2,0,0,.17.21.14,2.11-.28,3-2.16,3.29-4.15C243.61,351.72,216.35,333.4,211.12,330.18Z" style="fill: rgb(38, 50, 56); transform-origin: 208.323px 343.077px;" id="elvqqda3vj9eq" class="animable"></path><path d="M79,296.14l47-1.56s8.76-23.22,12.09-43.88-13.59-14.35-31.25,7.77S79,296.14,79,296.14Z" style="fill: rgb(55, 71, 79); transform-origin: 108.756px 267.127px;" id="els9gi7odlwys" class="animable"></path></g><g id="freepik--Device--inject-139" class="animable" style="transform-origin: 342.805px 293.605px;"><rect x="232.9" y="376.49" width="8.75" height="5.72" style="fill: rgb(69, 90, 100); transform-origin: 237.275px 379.35px;" id="el2rb87o204u4" class="animable"></rect><rect x="244.25" y="376.11" width="8.75" height="5.72" style="fill: rgb(69, 90, 100); transform-origin: 248.625px 378.97px;" id="el40xdstdrol8" class="animable"></rect><rect x="255.6" y="375.73" width="8.75" height="5.72" style="fill: rgb(69, 90, 100); transform-origin: 259.975px 378.59px;" id="el6wf4rs2j0y5" class="animable"></rect><rect x="266.95" y="375.35" width="8.75" height="5.72" style="fill: rgb(69, 90, 100); transform-origin: 271.325px 378.21px;" id="el3tvjzaxmafg" class="animable"></rect><rect x="278.31" y="374.98" width="8.75" height="5.72" style="fill: rgb(69, 90, 100); transform-origin: 282.685px 377.84px;" id="el32z6v9zkcag" class="animable"></rect><rect x="289.66" y="374.6" width="8.75" height="5.72" style="fill: rgb(69, 90, 100); transform-origin: 294.035px 377.46px;" id="elat0pw5h2u0h" class="animable"></rect><rect x="301.01" y="374.22" width="8.75" height="5.72" style="fill: rgb(69, 90, 100); transform-origin: 305.385px 377.08px;" id="el8fv08pbyo97" class="animable"></rect><rect x="312.37" y="373.84" width="8.75" height="5.72" style="fill: rgb(69, 90, 100); transform-origin: 316.745px 376.7px;" id="elrgeg44ul9ka" class="animable"></rect><rect x="323.72" y="373.47" width="8.75" height="5.72" style="fill: rgb(69, 90, 100); transform-origin: 328.095px 376.33px;" id="el7ujtywnep4t" class="animable"></rect><polygon points="334.62 385.49 230.75 385.49 230.75 378.54 334.62 375.64 334.62 385.49" style="fill: rgb(55, 71, 79); transform-origin: 282.685px 380.565px;" id="elexnr1bgrjva" class="animable"></polygon><polygon points="433.32 362.92 262.12 362.92 289.34 235.46 460.54 235.46 433.32 362.92" style="fill: rgb(69, 90, 100); transform-origin: 361.33px 299.19px;" id="elrw472favnf" class="animable"></polygon><polygon points="439.65 362.92 268.45 362.92 295.68 235.46 466.88 235.46 439.65 362.92" style="fill: rgb(55, 71, 79); transform-origin: 367.665px 299.19px;" id="elg58cz6ywsa6" class="animable"></polygon><g id="el1yzqin1imzv"><ellipse cx="371.87" cy="291.81" rx="11.46" ry="9.78" style="fill: rgb(38, 50, 56); transform-origin: 371.87px 291.81px; transform: rotate(-42.74deg);" class="animable"></ellipse></g><polygon points="391.23 396.21 307.03 396.21 307.03 389.67 391.23 386.94 391.23 396.21" style="fill: rgb(69, 90, 100); transform-origin: 349.13px 391.575px;" id="elslh0jwfz45" class="animable"></polygon><polygon points="414.12 396.2 368.92 396.2 341.69 324.78 386.9 324.78 414.12 396.2" style="fill: rgb(69, 90, 100); transform-origin: 377.905px 360.49px;" id="el0jzyl6akyqv7" class="animable"></polygon><polygon points="421.56 396.2 376.36 396.2 349.13 324.78 394.34 324.78 421.56 396.2" style="fill: rgb(38, 50, 56); transform-origin: 385.345px 360.49px;" id="elwqo249bh31" class="animable"></polygon><path d="M279.6,244.39c-4.8-1.89-9.55-3.88-14.29-5.89s-9.45-4.08-14.18-6.12S241.72,228.19,237,226l-7-3.24c-2.33-1.12-4.66-2.2-7-3.35,2.4.94,4.77,1.93,7.16,2.9l7.13,3c4.74,2,9.45,4.08,14.17,6.12s9.41,4.19,14.09,6.34S275,242.12,279.6,244.39Z" style="fill: rgb(38, 50, 56); transform-origin: 251.3px 231.9px;" id="elb1rh5g1m5br" class="animable"></path><path d="M271.33,283c-4.38.21-8.77.3-13.15.38s-8.77.08-13.15.12-8.77,0-13.15-.11l-6.58-.14c-2.19-.09-4.38-.14-6.57-.25,2.19-.11,4.38-.16,6.57-.24l6.58-.14c4.38-.08,8.77-.08,13.15-.12s8.77,0,13.15.12S267,282.76,271.33,283Z" style="fill: rgb(38, 50, 56); transform-origin: 245.03px 283px;" id="eljq93tvdf82" class="animable"></path><path d="M237.27,237.94c3.42.7,6.8,1.52,10.18,2.35s6.75,1.71,10.11,2.61,6.71,1.83,10.05,2.83l5,1.49c1.66.54,3.33,1,5,1.6-1.71-.34-3.41-.75-5.11-1.12l-5.07-1.23c-3.39-.82-6.75-1.71-10.11-2.61S250.59,242,247.25,241,240.58,239,237.27,237.94Z" style="fill: rgb(38, 50, 56); transform-origin: 257.44px 243.38px;" id="el59rrdhqrvid" class="animable"></path><path d="M235.55,191c4.43,3.55,8.79,7.18,13.13,10.82s8.63,7.35,12.95,11,8.57,7.43,12.81,11.2l6.34,5.66c2.1,1.91,4.21,3.8,6.28,5.74-2.22-1.77-4.4-3.58-6.6-5.37l-6.53-5.45c-4.34-3.64-8.63-7.35-12.95-11s-8.56-7.43-12.8-11.2S239.71,194.9,235.55,191Z" style="fill: rgb(38, 50, 56); transform-origin: 261.305px 213.21px;" id="elnqask0bpkh" class="animable"></path><path d="M232.9,293.38c3.46-.63,6.94-1.15,10.42-1.65s7-1,10.45-1.39,7-.83,10.48-1.16l5.25-.5c1.75-.13,3.5-.3,5.26-.4-1.73.33-3.47.59-5.2.88l-5.22.78c-3.48.51-7,.95-10.45,1.39s-7,.82-10.48,1.16S236.41,293.16,232.9,293.38Z" style="fill: rgb(38, 50, 56); transform-origin: 253.83px 290.83px;" id="el5zg8gm0g2ob" class="animable"></path><path d="M227.09,256.8c4.31.57,8.59,1.26,12.88,1.95s8.54,1.48,12.82,2.22,8.53,1.58,12.78,2.44l6.38,1.3c2.12.47,4.24.9,6.36,1.4-2.16-.27-4.3-.61-6.45-.92l-6.42-1c-4.29-.69-8.55-1.47-12.83-2.21s-8.53-1.59-12.78-2.44S231.33,257.78,227.09,256.8Z" style="fill: rgb(38, 50, 56); transform-origin: 252.7px 261.455px;" id="elgkhs3srtb3a" class="animable"></path><path d="M266,207.11c1.81,1.71,3.55,3.48,5.27,5.27s3.4,3.62,5.07,5.45,3.31,3.7,4.91,5.6l2.39,2.86c.77,1,1.56,1.93,2.31,2.92-.92-.84-1.79-1.73-2.68-2.59l-2.6-2.67c-1.73-1.78-3.4-3.62-5.07-5.45s-3.31-3.7-4.9-5.6S267.46,209.09,266,207.11Z" style="fill: rgb(38, 50, 56); transform-origin: 275.975px 218.16px;" id="elf0nvqtcnsjo" class="animable"></path></g><g id="freepik--Icons--inject-139" class="animable" style="transform-origin: 230.128px 142.675px;"><rect x="193.73" y="136.47" width="137.53" height="12.4" style="fill: rgb(235, 235, 235); transform-origin: 262.495px 142.67px;" id="el64knnrfyuzi" class="animable"></rect><rect x="196.22" y="138.54" width="116.85" height="8.45" style="fill: rgb(0, 255, 136); transform-origin: 254.645px 142.765px;" id="el2fpj9pkwfpq" class="animable"></rect><path d="M183.94,143.37c-1.87,3.43-6.35,6.45-6.35,6.45s-4.49-3-6.34-6.45c-2.12-3.88-.95-7.84,2.08-7.84,3.38,0,4.26,4.22,4.26,4.22s.89-4.22,4.25-4.22C184.88,135.53,186.05,139.49,183.94,143.37Z" style="fill: rgb(235, 235, 235); transform-origin: 177.591px 142.675px;" id="el84652rgc5vf" class="animable"></path><path d="M163.35,143.37c-1.87,3.43-6.35,6.45-6.35,6.45s-4.48-3-6.34-6.45c-2.11-3.88-.95-7.84,2.08-7.84,3.38,0,4.26,4.22,4.26,4.22s.89-4.22,4.26-4.22C164.29,135.53,165.46,139.49,163.35,143.37Z" style="fill: rgb(0, 255, 136); transform-origin: 157.004px 142.675px;" id="el3oymn6lgzeu" class="animable"></path><path d="M142.77,143.37c-1.87,3.43-6.36,6.45-6.36,6.45s-4.48-3-6.34-6.45c-2.11-3.88-.95-7.84,2.08-7.84,3.39,0,4.26,4.22,4.26,4.22s.89-4.22,4.26-4.22C143.7,135.53,144.88,139.49,142.77,143.37Z" style="fill: rgb(0, 255, 136); transform-origin: 136.417px 142.675px;" id="eliuqursuwlb9" class="animable"></path></g><g id="freepik--Trash--inject-139" class="animable" style="transform-origin: 258.628px 387.045px;"><polygon points="132.53 355.69 128.3 408.93 99.01 408.93 94.78 355.69 132.53 355.69" style="fill: rgb(0, 255, 136); transform-origin: 113.655px 382.31px;" id="el4ae7zgzq1c3" class="animable"></polygon><rect x="92.01" y="350.88" width="43.05" height="7.76" style="fill: rgb(69, 90, 100); transform-origin: 113.535px 354.76px;" id="eljl4zc34fe2r" class="animable"></rect><polygon points="132.1 350.88 94.96 350.88 97.13 342.17 129.93 342.17 132.1 350.88" style="fill: rgb(55, 71, 79); transform-origin: 113.53px 346.525px;" id="elpw3o458jm" class="animable"></polygon><path d="M123.82,382.78c0,6.91-4.55,12.51-10.16,12.51s-10.17-5.6-10.17-12.51,4.55-12.52,10.17-12.52S123.82,375.86,123.82,382.78Z" style="fill: rgb(255, 255, 255); transform-origin: 113.655px 382.775px;" id="elpj7oqul04fq" class="animable"></path><path d="M305.28,420.27c0,2.41-11.5,4.36-25.68,4.36s-25.68-1.95-25.68-4.36,11.49-4.36,25.68-4.36S305.28,417.86,305.28,420.27Z" style="fill: rgb(199, 199, 199); transform-origin: 279.6px 420.27px;" id="elvthxztgcyrq" class="animable"></path><path d="M282.77,424.63c0,2.41-11.5,4.36-25.68,4.36s-25.68-1.95-25.68-4.36,11.5-4.36,25.68-4.36S282.77,422.22,282.77,424.63Z" style="fill: rgb(199, 199, 199); transform-origin: 257.09px 424.63px;" id="elk26wf1ocq6p" class="animable"></path><polygon points="295.59 385.93 348.82 390.16 348.82 419.45 295.59 423.68 295.59 385.93" style="fill: rgb(0, 255, 136); transform-origin: 322.205px 404.805px;" id="elktku9wr9759" class="animable"></polygon><rect x="193.84" y="424.16" width="43.05" height="7.76" style="fill: rgb(69, 90, 100); transform-origin: 215.365px 428.04px;" id="elkucdid3i4nd" class="animable"></rect><polygon points="233.94 424.16 196.79 424.16 198.96 415.44 231.76 415.44 233.94 424.16" style="fill: rgb(55, 71, 79); transform-origin: 215.365px 419.8px;" id="el5o02ts9dffy" class="animable"></polygon><path d="M322.68,394.64c6.91,0,12.51,4.55,12.51,10.16S329.59,415,322.68,415s-12.52-4.55-12.52-10.17S315.76,394.64,322.68,394.64Z" style="fill: rgb(255, 255, 255); transform-origin: 322.675px 404.82px;" id="el12ze4nsfy0eg" class="animable"></path><path d="M411.3,389.81c3.3-.48,7.54-.48,7.78,1.41s-1.26,2.91-.79,3.85,3.15,2.67,4.41,3.93a9.29,9.29,0,0,1,2.2,3.93c0,.47.78,1.26,0,2.2s-1.23,2.36-1.88,3.07-.92,1.49,0,2.75.14,4.87-1.28,6.13-5.5-1.73-6.76-1.42-1.41.94-2.51,1.73-3.77,2.68-6.6,2.68-4.25-2.52-6-3.62-3.3-1.26-4.87-1.89a9,9,0,0,1-3.62-2.67c-.31-.63-1.41-.78-.94-2.51s1.26-2.2,1.26-3.62,0-1.66,0-3.27-1.27-4.43-.17-5.69,1.89-3.14,3.62-3.14,7.23.94,7.23.94a14.58,14.58,0,0,0,1.57-2,4.53,4.53,0,0,1,3.81-2.2A11.69,11.69,0,0,0,411.3,389.81Z" style="fill: rgb(255, 255, 255); transform-origin: 407.786px 404.806px;" id="elwo6c7ey06lo" class="animable"></path><path d="M391.73,405.76c2.25,1,4.53,2,6.83,2.87s4.57,1.87,6.88,2.72a62.88,62.88,0,0,0,6.9,2.24,5.49,5.49,0,0,0,1.44.17l1.39-.7a21.64,21.64,0,0,0,3-1.85,8.33,8.33,0,0,0,2.29-2.34,4.62,4.62,0,0,0,.33-.67l.1-.34.05-.16s0,0,0,0a2.79,2.79,0,0,0-.61-1A33.33,33.33,0,0,0,415,402c-2-1.46-4-2.83-6.09-4.13-1-.67-2.08-1.32-3.15-1.93-.54-.3-1.08-.59-1.63-.86a8,8,0,0,0-.84-.38c-.26-.07-.62-.3-.83-.06.18-.29.6-.12.88-.09a9.36,9.36,0,0,1,.91.24c.59.19,1.17.42,1.75.66,1.15.47,2.28,1,3.4,1.54,2.22,1.13,4.38,2.36,6.5,3.7a28.75,28.75,0,0,1,6,4.76,4,4,0,0,1,1.09,2.18,1.89,1.89,0,0,1,0,.47l-.07.29-.16.55a8.18,8.18,0,0,1-.47,1,10.3,10.3,0,0,1-2.81,3,24.1,24.1,0,0,1-3.32,2l-.84.42-.43.2-.23.11-.46.14a6.16,6.16,0,0,1-2.23-.23,47.36,47.36,0,0,1-7.07-2.68A94.92,94.92,0,0,1,391.73,405.76Z" style="fill: rgb(199, 199, 199); transform-origin: 407.367px 405.152px;" id="elwl93kzw4eb" class="animable"></path><path d="M401.11,410a41,41,0,0,1,4.08-5.43c.73-.87,1.54-1.67,2.35-2.48.41-.41.85-.78,1.3-1.16a7.12,7.12,0,0,1,1.66-1.1,2.24,2.24,0,0,1,.31-.11,2.07,2.07,0,0,1,.66,0,1.65,1.65,0,0,1,.86.46,6,6,0,0,1,.65.79,16.89,16.89,0,0,1,.95,1.5c.54,1,1.08,2,1.52,3.07A27.4,27.4,0,0,1,417.6,412L414,406.29c-.61-.93-1.16-1.89-1.78-2.8-.3-.45-.59-.92-.89-1.31a5.14,5.14,0,0,0-.43-.51s0,0,.15.07a.36.36,0,0,0,.25,0l-.08,0a6.24,6.24,0,0,0-1.15.75l-1.25,1-2.52,2.17C404.64,407.2,402.94,408.66,401.11,410Z" style="fill: rgb(199, 199, 199); transform-origin: 409.355px 405.847px;" id="elhjxzmchqngw" class="animable"></path><path d="M379.66,428.06c-1.79.43-4.11.64-4.34-.38s.54-1.66.23-2.15a22.45,22.45,0,0,0-2.61-1.93,5.13,5.13,0,0,1-1.41-2c0-.25-.49-.64-.11-1.2s.55-1.36.87-1.78a1,1,0,0,0-.14-1.5c-.58-.65-.33-2.67.38-3.43s3.1.67,3.78.43.72-.59,1.28-1.08a6.82,6.82,0,0,1,3.48-1.8c1.56-.15,2.46,1.16,3.46,1.67a13.34,13.34,0,0,0,2.77.79,4.91,4.91,0,0,1,2.12,1.28c.2.32.81.35.64,1.33s-.57,1.27-.5,2,.07.91.16,1.79.92,2.37.39,3.11-.88,1.82-1.82,1.91-4-.15-4-.15a7.64,7.64,0,0,0-.76,1.2,2.51,2.51,0,0,1-2,1.41A6.09,6.09,0,0,0,379.66,428.06Z" style="fill: rgb(255, 255, 255); transform-origin: 380.781px 419.822px;" id="elw7tl8r4h97l" class="animable"></path><path d="M372.82,418c1-1,2-1.93,2.95-2.89l.76-.68.38-.35a2,2,0,0,1,.76-.37,11.73,11.73,0,0,1,2.21-.28,22,22,0,0,1,4.28.24,7,7,0,0,1,2.3.71,2.35,2.35,0,0,1,1,1.41,4.18,4.18,0,0,1,.16,1.31,13.56,13.56,0,0,1-1,4.35,17.66,17.66,0,0,1-.92,2,7.39,7.39,0,0,1-.61,1,2.48,2.48,0,0,1-1.15.9,10.67,10.67,0,0,1-4.41.28,30.09,30.09,0,0,1-4.12-.72c1.39-.1,2.77-.12,4.12-.29a12.59,12.59,0,0,0,3.74-.74c.26-.14.19-.14.39-.41s.29-.52.43-.81a18.93,18.93,0,0,0,.69-1.82,12.34,12.34,0,0,0,.74-3.7,1.5,1.5,0,0,1,.47-1,14,14,0,0,0-2.25-.52,28.17,28.17,0,0,0-3.93-.55,12.22,12.22,0,0,0-1.91,0c-.12,0-.24.06-.2,0l-.43.28-.89.56C375.22,416.55,374.05,417.31,372.82,418Z" style="fill: rgb(199, 199, 199); transform-origin: 380.221px 419.577px;" id="elzhz5qfkib5a" class="animable"></path><path d="M377.1,415.32c.07,1.32,0,2.59.12,3.76,0,.53.17,1.19.31,1.23s0,0,0,0,0,0,.12,0a5.62,5.62,0,0,0,.72-.08c1.11-.19,2.31-.52,3.53-.78a26.67,26.67,0,0,1,3.8-.62,16,16,0,0,1-7,3.44,6.19,6.19,0,0,1-1.17,0,2.66,2.66,0,0,1-.8-.18,1.71,1.71,0,0,1-.75-.67,3.56,3.56,0,0,1-.32-2.43A9.38,9.38,0,0,1,377.1,415.32Z" style="fill: rgb(199, 199, 199); transform-origin: 380.637px 418.809px;" id="ellm0wynd6xjn" class="animable"></path><path d="M144.87,405c-.81-2.43-.67-5.25-3.41-5s-4.38-3.12-5.61-3.95-5.62,0-6.58.83-1.37,2.42-2.33,3.12-2.33,1.81-3.56,2.91-3,2.6-2.47,5.34,1.78,3.68,2.61,5.06-.55,3.84.54,7,6.44,4.38,7.81,3.83,5-2.88,7-2.88,2.55,1.65,4.34.69,4.38-3,4.52-3.84-1.51-1.54-1-2.82,2.74-3.69,2.46-5.3S145.48,406.82,144.87,405Z" style="fill: rgb(255, 255, 255); transform-origin: 135.014px 409.987px;" id="eliq2xas3sx7" class="animable"></path><path d="M139.79,399.71a76.88,76.88,0,0,0-9.89,3.94,5.74,5.74,0,0,0-1,.66c-.13,0-.21.62-.29,1-.15.86-.25,1.74-.35,2.62-.17,1.75-.31,3.52-.32,5.27a16.15,16.15,0,0,0,.14,2.55,2,2,0,0,0,.18.68,3,3,0,0,0,1,.29,25.78,25.78,0,0,0,5.15.26,24,24,0,0,0,2.58-.21c.74-.12,1.74-.36,2.58-.51,1.74-.35,3.5-.69,5.17-1.13.41-.11.84-.21,1.18-.34a.78.78,0,0,0,.2-.09s.1,0,0,0a.24.24,0,0,0-.12.17.88.88,0,0,0-.07.65,1,1,0,0,0,.17.3c0,.05.13.1.11.1s0,0,0,0l-.24-.09c-.76-.25-1.65-.45-2.5-.66L138.27,414c-1.75-.38-3.49-.77-5.24-1.21-.87-.22-1.75-.45-2.63-.76a4.21,4.21,0,0,1-1.47-.76,1.06,1.06,0,0,1-.16-.19,1.13,1.13,0,0,1-.13-.33,1.82,1.82,0,0,1,0-.33,2,2,0,0,1,.09-.5,5,5,0,0,1,.32-.73,22.92,22.92,0,0,1,3.39-4.35q.48-.49,1-1c.18-.15.35-.31.55-.46l.29-.21a1.36,1.36,0,0,1,.45-.23,1.31,1.31,0,0,1,1,.24,4.87,4.87,0,0,1,.59.47,12.9,12.9,0,0,1,.95,1,69.14,69.14,0,0,1,5.82,9,83,83,0,0,0-6.49-8.45,11,11,0,0,0-.92-.89,2.15,2.15,0,0,0-.7-.45l-.13.09-.23.19a6.17,6.17,0,0,0-.46.43c-.31.3-.6.62-.89.94a21.53,21.53,0,0,0-3,4.2,2.92,2.92,0,0,0-.19.5c0,.06,0,.18,0,.16h0a.67.67,0,0,0-.07-.18.16.16,0,0,0-.05-.06,5.84,5.84,0,0,0,.94.36c.81.25,1.67.47,2.52.68,1.72.4,3.46.76,5.21,1.12l6.69,1.28c.88.2.3.18,1.24.47l.39.14a2,2,0,0,1,.27.15,1,1,0,0,1,.24.19,1.17,1.17,0,0,1,.22.37,1,1,0,0,1-.07.73,1.76,1.76,0,0,1-.37.4,2.89,2.89,0,0,1-.25.16l-.41.18a12.68,12.68,0,0,1-1.38.43c-1.78.43-3.54.74-5.3,1.07-.92.15-1.65.33-2.67.49a26.08,26.08,0,0,1-2.76.18,27.85,27.85,0,0,1-5.51-.37,4.38,4.38,0,0,1-1.55-.56,1.76,1.76,0,0,1-.62-.94,3.16,3.16,0,0,1-.16-.79,17.53,17.53,0,0,1,0-2.8c.1-1.81.31-3.6.58-5.38.14-.89.28-1.77.48-2.67.17-.45.06-.86.6-1.47a5.46,5.46,0,0,1,1.27-.77,46.75,46.75,0,0,1,5.09-1.8C136.32,400.56,138,400.08,139.79,399.71Z" style="fill: rgb(199, 199, 199); transform-origin: 137.146px 409.127px;" id="elpu6x0sjnmk" class="animable"></path></g><defs>     <filter id="active" height="200%">         <feMorphology in="SourceAlpha" result="DILATED" operator="dilate" radius="2"></feMorphology>                <feFlood flood-color="#32DFEC" flood-opacity="1" result="PINK"></feFlood>        <feComposite in="PINK" in2="DILATED" operator="in" result="OUTLINE"></feComposite>        <feMerge>            <feMergeNode in="OUTLINE"></feMergeNode>            <feMergeNode in="SourceGraphic"></feMergeNode>        </feMerge>    </filter>    <filter id="hover" height="200%">        <feMorphology in="SourceAlpha" result="DILATED" operator="dilate" radius="2"></feMorphology>                <feFlood flood-color="#ff0000" flood-opacity="0.5" result="PINK"></feFlood>        <feComposite in="PINK" in2="DILATED" operator="in" result="OUTLINE"></feComposite>        <feMerge>            <feMergeNode in="OUTLINE"></feMergeNode>            <feMergeNode in="SourceGraphic"></feMergeNode>        </feMerge>            <feColorMatrix type="matrix" values="0   0   0   0   0                0   1   0   0   0                0   0   0   0   0                0   0   0   1   0 "></feColorMatrix>    </filter></defs></svg>